<?xml version="1.0" standalone="no"?><!DOCTYPE svg PUBLIC "-//W3C//DTD SVG 1.1//EN" "http://www.w3.org/Graphics/SVG/1.1/DTD/svg11.dtd"><svg class="icon" width="200px" height="200.00px" viewBox="0 0 1024 1024" version="1.1" xmlns="http://www.w3.org/2000/svg"><path fill="#1296db" d="M512 0C229.23 0 0 229.23 0 512s229.23 512 512 512 512-229.23 512-512S794.77 0 512 0z m251.412 398.829L491.159 671.082a35.49 35.49 0 0 1-1.557 1.459c-14.039 13.53-36.586 13.383-50.428-0.459L286.588 519.497c-14.001-14.001-14.001-36.911 0-50.912s36.911-14.001 50.912 0l127.166 127.166L712.5 347.917c14.001-14.001 36.911-14.001 50.912 0 14.001 14.001 14.001 36.911 0 50.912z"  /></svg>