<?xml version="1.0" standalone="no"?><!DOCTYPE svg PUBLIC "-//W3C//DTD SVG 1.1//EN" "http://www.w3.org/Graphics/SVG/1.1/DTD/svg11.dtd"><svg class="icon" width="200px" height="200.00px" viewBox="0 0 1024 1024" version="1.1" xmlns="http://www.w3.org/2000/svg"><path fill="#1296db" d="M909.909 841.626a42.341 42.341 0 0 0-3.508-3.129C979.848 749.875 1024 636.095 1024 512 1024 229.23 794.77 0 512 0S0 229.23 0 512s229.23 512 512 512c128.358 0 245.681-47.236 335.542-125.27a42.352 42.352 0 0 0 2.508 2.755l100.074 100.075c16.461 16.461 43.398 16.461 59.859 0s16.461-43.398 0-59.859L909.909 841.626z m-229.237 69.742c-53.38 22.578-110.13 34.026-168.672 34.026s-115.292-11.448-168.672-34.026c-51.599-21.825-97.956-53.085-137.783-92.912-39.827-39.828-71.088-86.184-92.912-137.783C90.054 627.292 78.606 570.542 78.606 512s11.448-115.292 34.026-168.672c21.825-51.599 53.085-97.956 92.912-137.783 39.828-39.828 86.185-71.088 137.783-92.912C396.708 90.054 453.457 78.606 512 78.606s115.292 11.448 168.672 34.026c51.599 21.825 97.956 53.085 137.783 92.912 39.827 39.827 71.088 86.184 92.912 137.783 22.578 53.38 34.026 110.13 34.026 168.672s-11.448 115.292-34.026 168.672c-21.825 51.599-53.085 97.956-92.912 137.783-39.827 39.829-86.184 71.089-137.783 92.914z"  /></svg>