<?xml version="1.0" standalone="no"?><!DOCTYPE svg PUBLIC "-//W3C//DTD SVG 1.1//EN" "http://www.w3.org/Graphics/SVG/1.1/DTD/svg11.dtd"><svg class="icon" width="200px" height="200.00px" viewBox="0 0 1024 1024" version="1.1" xmlns="http://www.w3.org/2000/svg"><path fill="#1296db" d="M512 712.509c8.28 0 16.064-3.225 21.919-9.079l487.057-487.057c-8.749-28.691-35.521-49.722-66.976-49.722H70c-31.455 0-58.227 21.03-66.976 49.722L490.08 703.429c5.856 5.855 13.64 9.08 21.92 9.08z"  /><path fill="#1296db" d="M589.074 758.583c-20.586 20.587-47.959 31.926-77.074 31.926s-56.488-11.339-77.074-31.927L0 323.657v463.692c0 38.5 31.5 70 70 70h884c38.5 0 70-31.5 70-70V323.657L589.074 758.583z"  /></svg>